<svg width="24" height="20" viewBox="0 0 24 20" fill="none" xmlns="http://www.w3.org/2000/svg">
<path d="M0.448969 17.4356C-0.149656 18.0222 -0.149656 18.9734 0.448969 19.56C1.04759 20.1467 2.01816 20.1467 2.61678 19.56L11.288 11.0622C11.8867 10.4756 11.8867 9.52443 11.288 8.93778L2.61678 0.439987C2.01816 -0.146663 1.04759 -0.146662 0.448969 0.439987C-0.149656 1.02664 -0.149656 1.97778 0.448969 2.56443L6.95241 8.93778C8 10 8 10 6.95241 11.0622L0.448969 17.4356Z" fill="white"/>
<path d="M12.712 17.4356C12.1133 18.0222 12.1133 18.9734 12.712 19.56C13.3106 20.1467 14.2812 20.1467 14.8798 19.56L23.551 11.0622C24.1497 10.4756 24.1497 9.52443 23.551 8.93778L14.8798 0.439987C14.2812 -0.146663 13.3106 -0.146662 12.712 0.439987C12.1133 1.02664 12.1133 1.97778 12.712 2.56443L19.2154 8.93778C20 10 20 10 19.2154 11.0622L12.712 17.4356Z" fill="white"/>
</svg>
