<?xml version="1.0" encoding="utf-8"?>
<!-- Generator: Adobe Illustrator 24.0.1, SVG Export Plug-In . SVG Version: 6.00 Build 0)  -->
<svg version="1.1" id="Layer_1" xmlns="http://www.w3.org/2000/svg" xmlns:xlink="http://www.w3.org/1999/xlink" x="0px" y="0px"
	 viewBox="0 0 24 22" style="enable-background:new 0 0 24 22;" xml:space="preserve">
<style type="text/css">
	.st0{fill-rule:evenodd;clip-rule:evenodd;}
</style>
<path class="st0" d="M3.6,2.9L3,1.4l-2.5,0C0.2,1.4,0,1.1,0,0.9V0.5C0,0.2,0.2,0,0.5,0l2.9,0C3.7,0,4,0.2,4.1,0.4l0.7,1.6h18.7
	c0.3,0,0.6,0.3,0.5,0.6L21.5,14c-0.1,0.2-0.3,0.4-0.5,0.4H6.2l0,0v0H5.8l0.9,2.7h0.2h0h0h13.8h0c1.1,0,2.1,0.9,2.1,2.1
	c0,1.1-0.9,2.1-2.1,2.1s-2.1-0.9-2.1-2.1c0-0.2,0-0.5,0.1-0.7H8.8C8.9,18.7,9,19,9,19.2c0,1.1-0.9,2.1-2.1,2.1s-2.1-0.9-2.1-2.1
	c0-0.6,0.2-1.1,0.6-1.5l-1.3-3.8c-0.1-0.2,0-0.4,0.1-0.6C4.4,13.1,4.6,13,4.8,13h1.1L3.6,2.9z"/>
</svg>
