<svg width="24" height="16" viewBox="0 0 24 16" fill="none" xmlns="http://www.w3.org/2000/svg">
<path d="M0 1C0 0.447715 0.447715 0 1 0H23C23.5523 0 24 0.447715 24 1V3C24 3.55228 23.5523 4 23 4H1C0.447716 4 0 3.55228 0 3V1Z" fill="black"/>
<path d="M0 13C0 12.4477 0.447715 12 1 12H23C23.5523 12 24 12.4477 24 13V15C24 15.5523 23.5523 16 23 16H1C0.447716 16 0 15.5523 0 15V13Z" fill="black"/>
<path d="M0 7C0 6.44772 0.447715 6 1 6H23C23.5523 6 24 6.44772 24 7V9C24 9.55228 23.5523 10 23 10H1C0.447716 10 0 9.55228 0 9V7Z" fill="black"/>
</svg>
