<svg width="88" height="88" viewBox="0 0 88 88" fill="none" xmlns="http://www.w3.org/2000/svg">
<path fill-rule="evenodd" clip-rule="evenodd" d="M88 87.9706L0.0294495 0H33.9706L88 54.0294V87.9706Z" fill="#D03C3C"/>
<path d="M33.4313 9.50159L26.4309 16.5019L27.7546 17.8257L32.5403 13.04L30.8432 20.9143L32.1669 22.238L39.1673 15.2376L37.8436 13.9139L33.0579 18.6996L34.755 10.8253L33.4313 9.50159ZM40.3753 16.4456L33.3749 23.446L37.2442 27.3152L38.4067 26.1528L35.8611 23.6072L37.626 21.8422L40.0698 24.286L41.2323 23.1235L38.7885 20.6798L40.5365 18.9318L43.0821 21.4774L44.2446 20.3149L40.3753 16.4456ZM52.7475 28.8178L46.1968 32.6532L49.871 25.9413L48.8527 24.9231L42.1409 28.5972L45.9762 22.0466L44.5083 20.5786L39.5189 29.59L40.9954 31.0664L46.8078 27.9862L43.7276 33.7987L45.2041 35.2751L54.2154 30.2858L52.7475 28.8178ZM56.8984 32.9687L49.898 39.9691L51.2217 41.2928L58.2221 34.2924L56.8984 32.9687ZM58.4681 34.5385L57.3057 35.701L59.1045 37.4998L53.2667 43.3377L54.5904 44.6614L60.4282 38.8235L62.2271 40.6224L63.3896 39.4599L58.4681 34.5385ZM64.0412 40.1116L57.0409 47.1119L60.9102 50.9812L62.0727 49.8187L59.5271 47.2732L61.292 45.5082L63.7358 47.952L64.8983 46.7895L62.4545 44.3457L64.2025 42.5978L66.748 45.1434L67.9105 43.9809L64.0412 40.1116ZM74.0715 50.1418L67.9282 52.8911L70.6774 46.7477L69.2688 45.3392L61.5642 51.6353L62.8879 52.959L67.9706 48.7927L65.1195 54.9021L65.9172 55.6997L72.0266 52.8487L67.8603 57.9313L69.184 59.255L75.4801 51.5504L74.0715 50.1418ZM77.485 52.9614L72.4702 58.2987L73.3867 59.2151L78.7239 54.2003L77.485 52.9614ZM72.3175 59.3678C71.8593 58.9096 71.1296 58.9096 70.6714 59.3678C70.2132 59.826 70.2132 60.5557 70.6714 61.0139C71.1296 61.4722 71.8593 61.4722 72.3175 61.0139C72.7757 60.5557 72.7757 59.826 72.3175 59.3678Z" fill="#F2F2F2"/>
</svg>
