<svg width="88" height="88" viewBox="0 0 88 88" fill="none" xmlns="http://www.w3.org/2000/svg">
<path fill-rule="evenodd" clip-rule="evenodd" d="M87.9706 87.9706L0 0H33.9411L87.9706 54.0294V87.9706Z" fill="#D03C3C"/>
<path d="M31.6878 11.6908C30.9411 12.4375 30.8138 13.566 31.3144 14.8813C31.832 16.2304 32.2648 17.2402 31.6708 17.8341C30.9326 18.5724 30.0925 18.0208 29.6089 17.5372C28.684 16.6123 28.7349 15.0001 28.7349 15.0001L26.9784 15.2631C26.9784 15.2631 26.7578 17.1299 28.4803 18.8524C29.821 20.193 31.6284 20.7616 33.1897 19.2003C34.4709 17.919 33.597 16.0947 33.0709 14.7031C32.7824 13.9394 32.6466 13.3115 33.0285 12.9296C33.4867 12.4714 34.1909 12.446 34.8358 13.0909C35.6759 13.9309 35.6928 14.9491 35.6928 14.9491L37.2881 14.6097C37.2881 14.6097 37.3475 13.1927 35.9559 11.8011C34.8528 10.698 32.9436 10.435 31.6878 11.6908ZM34.9293 21.7545L37.6955 24.5207L36.6688 26.7693L38.0858 28.1863L42.286 18.3858L41.0641 17.1639L31.2636 21.3641L32.6807 22.7812L34.9293 21.7545ZM38.3998 22.9L36.55 21.0502L39.8847 19.5653L38.3998 22.9ZM45.5 21.5997L38.4996 28.6001L42.3859 32.4864L43.5483 31.3239L40.9858 28.7613L46.8237 22.9235L45.5 21.5997ZM50.2646 26.3644L43.2643 33.3648L47.1336 37.2341L48.2961 36.0716L45.7505 33.526L47.5154 31.7611L49.9592 34.2048L51.1217 33.0423L48.6779 30.5986L50.4259 28.8506L52.9714 31.3962L54.1339 30.2337L50.2646 26.3644ZM51.4072 38.0797L54.8183 41.4908L53.1043 43.2048L54.3431 44.4436L56.0572 42.7296L56.8718 43.5442L58.0342 42.3817L57.2197 41.5671L61.3435 37.4433L60.0368 36.1366L51.8315 37.6554L51.4072 38.0797ZM54.3686 38.7161L58.3312 37.9779L55.9808 40.3283L54.3686 38.7161ZM59.1257 42.2343C56.6989 44.6611 56.8431 47.2152 58.345 48.717C59.8469 50.2189 62.401 50.3632 64.8278 47.9364C67.2546 45.5096 67.1103 42.9555 65.6084 41.4536C64.1065 39.9518 61.5525 39.8075 59.1257 42.2343ZM60.4663 43.575C62.0531 41.9882 63.555 41.7252 64.4459 42.6161C65.3369 43.5071 65.0738 45.009 63.4871 46.5957C61.9003 48.1825 60.3985 48.4455 59.5075 47.5546C58.6165 46.6636 58.8796 45.1617 60.4663 43.575ZM67.3814 46.5699C66.3972 47.5542 66.499 49.0306 67.5427 50.0743C68.5864 51.118 70.0628 51.2198 71.0471 50.2355C72.0314 49.2512 71.9296 47.7748 70.8859 46.7311C69.8422 45.6874 68.3657 45.5856 67.3814 46.5699ZM68.2894 47.4778C68.8324 46.9347 69.6385 46.9432 70.1561 47.4608C70.6737 47.9784 70.6822 48.7845 70.1392 49.3276C69.5961 49.8706 68.79 49.8622 68.2724 49.3446C67.7548 48.827 67.7463 48.0209 68.2894 47.4778ZM67.6699 54.6818C66.6857 55.6661 66.7875 57.1425 67.8312 58.1862C68.8749 59.2299 70.3513 59.3317 71.3356 58.3474C72.3199 57.3632 72.2181 55.8867 71.1744 54.843C70.1307 53.7993 68.6542 53.6975 67.6699 54.6818ZM68.5779 55.5897C69.1209 55.0467 69.927 55.0552 70.4446 55.5728C70.9622 56.0904 70.9707 56.8965 70.4277 57.4395C69.8846 57.9826 69.0785 57.9741 68.5609 57.4565C68.0433 56.9389 68.0348 56.1328 68.5779 55.5897ZM63.4103 53.5108L64.2504 54.3509L75.3237 51.4235L74.4836 50.5834L63.4103 53.5108Z" fill="#F2F2F2"/>
</svg>
