<svg width="24" height="24" viewBox="0 0 24 24" fill="none" xmlns="http://www.w3.org/2000/svg">
<path fill-rule="evenodd" clip-rule="evenodd" d="M14.2515 16.3783C12.7765 17.4287 10.972 18.0465 9.02323 18.0465C4.03984 18.0465 0 14.0066 0 9.02323C0 4.03984 4.03984 0 9.02323 0C14.0066 0 18.0465 4.03984 18.0465 9.02323C18.0465 10.972 17.4287 12.7765 16.3783 14.2515L23.5595 21.4327C24.1468 22.02 24.1468 22.9722 23.5595 23.5595C22.9722 24.1468 22.02 24.1468 21.4327 23.5595L14.2515 16.3783ZM15.0387 9.02323C15.0387 12.3455 12.3455 15.0387 9.02323 15.0387C5.70097 15.0387 3.00774 12.3455 3.00774 9.02323C3.00774 5.70097 5.70097 3.00774 9.02323 3.00774C12.3455 3.00774 15.0387 5.70097 15.0387 9.02323Z" fill="black"/>
</svg>
